<svg xmlns="http://www.w3.org/2000/svg" viewBox="0 0 24 24" fill="none" stroke="currentColor" stroke-width="2" stroke-linecap="round" stroke-linejoin="round" class="lucide lucide-sparkles"><path d="M9.937 15.5A2 2 0 0 0 8.5 14.063l-6.135-3.572A2 2 0 0 0 1.5 12.223l6.135 3.571A2 2 0 0 0 9.937 15.5zm0-7A2 2 0 0 0 8.5 7.063L2.365 3.49A2 2 0 0 0 1.5 5.223l6.135 3.571A2 2 0 0 0 9.937 8.5z"/><path d="M14.063 15.5a2 2 0 0 0 1.437-1.437l3.572-6.135a2 2 0 0 0-1.732-2.732l-3.571 6.135a2 2 0 0 0 1.732 2.732z"/><path d="M14.063 8.5a2 2 0 0 0 1.437-1.437l3.572-6.135a2 2 0 0 0-1.732-2.732l-3.571 6.135a2 2 0 0 0 1.732 2.732z"/></svg>
